<?xml version="1.0" encoding="UTF-8"?>
<svg version="1.1" xmlns="http://www.w3.org/2000/svg" width="500" height="500">
<path d="M0 0 C2.35694954 0.09031574 4.71153582 0.24688128 7.0625 0.4375 C8.35285156 0.53933594 9.64320313 0.64117187 10.97265625 0.74609375 C12.47119141 0.87177734 12.47119141 0.87177734 14 1 C15.35605968 4.85462635 16.24143238 7.8956496 16 12 C16.639375 12.12375 17.27875 12.2475 17.9375 12.375 C18.618125 12.58125 19.29875 12.7875 20 13 C21.26237731 15.52475462 21.09856404 17.31200466 21.0625 20.125 C21.05347656 21.03507812 21.04445313 21.94515625 21.03515625 22.8828125 C21.01775391 23.93082031 21.01775391 23.93082031 21 25 C18.525 25.99 18.525 25.99 16 27 C16.07223538 30.07328704 16.26641916 33.00844693 17 36 C19.4390706 38.20142332 19.4390706 38.20142332 22 40 C23.09894561 43.76781351 23.04129335 46.28338375 22 50 C15.89211746 51.99894338 11.07674999 52.45706854 5 50 C2.57923074 47.92665596 1.30140598 45.90313643 0 43 C-3.15539038 43.72391532 -3.15539038 43.72391532 -4.6875 46.375 C-7.73102819 49.82981578 -10.53003289 51.055748 -15 52 C-17.62510902 52.10889341 -20.17879902 52.07068577 -22.80078125 51.91015625 C-25.29519323 51.82104145 -25.29519323 51.82104145 -28 54 C-27.505 61.425 -27.505 61.425 -27 69 C-28.32 69 -29.64 69 -31 69 C-31.67160156 69.01160156 -32.34320313 69.02320313 -33.03515625 69.03515625 C-36.29592527 69.07913579 -38.88522054 69.03825982 -42 68 C-42.495 60.575 -42.495 60.575 -43 53 C-46.01490557 51.99503148 -48.04181692 51.89664697 -51.1875 51.9375 C-52.08855469 51.94652344 -52.98960937 51.95554687 -53.91796875 51.96484375 C-54.60503906 51.97644531 -55.29210937 51.98804688 -56 52 C-56.96088383 49.11734851 -57.11670941 47.32337729 -57.09765625 44.33203125 C-57.09282227 42.99301758 -57.09282227 42.99301758 -57.08789062 41.62695312 C-57.07532227 40.23379883 -57.07532227 40.23379883 -57.0625 38.8125 C-57.05798828 37.87212891 -57.05347656 36.93175781 -57.04882812 35.96289062 C-57.03704626 33.64186288 -57.02059558 31.32096356 -57 29 C-57.66 28.67 -58.32 28.34 -59 28 C-59 27.34 -59 26.68 -59 26 C-63.60783171 25.54301194 -63.60783171 25.54301194 -67.71435547 27.20849609 C-69.40398896 29.5629455 -69.33191012 30.97257241 -69.2578125 33.8515625 C-69.24363281 34.78484375 -69.22945313 35.718125 -69.21484375 36.6796875 C-69.18519531 37.65164062 -69.15554687 38.62359375 -69.125 39.625 C-69.08183789 41.55460016 -69.04255905 43.48429246 -69.0078125 45.4140625 C-68.98348145 46.2695166 -68.95915039 47.1249707 -68.93408203 48.00634766 C-69 50 -69 50 -70 51 C-74.23581392 51.73031274 -77.31334289 52.12046616 -81.5625 51.375 C-85.8531627 50.90692771 -88.09624707 52.29654418 -92 54 C-95.96276172 53.77137913 -97.67499687 53.21666876 -101 51 C-101.845625 50.690625 -102.69125 50.38125 -103.5625 50.0625 C-106 49 -106 49 -108 46 C-108.60328125 46.3609375 -109.2065625 46.721875 -109.828125 47.09375 C-110.62734375 47.5578125 -111.4265625 48.021875 -112.25 48.5 C-113.03890625 48.9640625 -113.8278125 49.428125 -114.640625 49.90625 C-117 51 -117 51 -121 51 C-121 51.66 -121 52.32 -121 53 C-126.85339539 54.9511318 -130.93983178 54.26064502 -136.375 51.5625 C-140.76527331 49.23472669 -140.76527331 49.23472669 -142 48 C-141.52334944 41.68438003 -141.52334944 41.68438003 -139.375 38.875 C-137.70336706 37.03137821 -137.70336706 37.03137821 -138.25 34.375 C-138.92658612 32.01589855 -138.92658612 32.01589855 -140 30 C-140.36448477 21.61685029 -140.36448477 21.61685029 -137.75390625 18.5234375 C-133.54930939 14.87133777 -127.83398465 13.15810212 -122.375 12.6875 C-118.56519676 13.04025956 -114.7891967 13.46818292 -111 14 C-110.67 15.32 -110.34 16.64 -110 18 C-106.95649535 17.34267886 -104.39494772 16.27496281 -101.58203125 14.95703125 C-95.29324645 12.4062143 -89.39019245 12.51602691 -82.6875 12.6875 C-81.53443359 12.69716797 -80.38136719 12.70683594 -79.19335938 12.71679688 C-70.83827388 12.82819801 -70.83827388 12.82819801 -67.33520508 13.54614258 C-64.86382489 14.16403581 -64.86382489 14.16403581 -61.8125 13.5 C-57.06113327 12.87686994 -52.72820775 13.38162273 -48 14 C-48 13.34 -48 12.68 -48 12 C-42.54494666 11.90258833 -37.39412038 12.23237518 -32 13 C-30.50031819 13.19002818 -29.00032284 13.37760106 -27.5 13.5625 C-26.345 13.706875 -25.19 13.85125 -24 14 C-23.67 13.34 -23.34 12.68 -23 12 C-19.27664607 12.45592089 -15.84982751 13.04505175 -12.25 14.125 C-9.02324413 15.31440749 -9.02324413 15.31440749 -6 14 C-5.01 14.495 -5.01 14.495 -4 15 C-3.67 14.01 -3.34 13.02 -3 12 C-2.01 12 -1.02 12 0 12 C-0.08378906 11.21753906 -0.16757812 10.43507812 -0.25390625 9.62890625 C-0.40666016 8.11103516 -0.40666016 8.11103516 -0.5625 6.5625 C-0.66691406 5.55316406 -0.77132812 4.54382813 -0.87890625 3.50390625 C-0.91886719 2.67761719 -0.95882812 1.85132813 -1 1 C-0.67 0.67 -0.34 0.34 0 0 Z M-43 15 C-43 25.89 -43 36.78 -43 48 C-42.67 48 -42.34 48 -42 48 C-42 37.11 -42 26.22 -42 15 C-42.33 15 -42.66 15 -43 15 Z M-124 23 C-120 24 -120 24 -120 24 Z M-97.5 27.125 C-99.26576304 30.50937915 -99.71928041 32.24375785 -99 36 C-96.39012329 38.68237329 -93.83548495 40.88377318 -90 41 C-86.78287055 39.64185993 -86.78287055 39.64185993 -84 38 C-84 34.7 -84 31.4 -84 28 C-84.66 28 -85.32 28 -86 28 C-86.33 27.01 -86.66 26.02 -87 25 C-92.76333633 24.33741148 -92.76333633 24.33741148 -97.5 27.125 Z M-26 26 C-26 26.66 -26 27.32 -26 28 C-26.66 28 -27.32 28 -28 28 C-28.94271002 31.25639659 -28.94271002 31.25639659 -29 35 C-27.16666667 38.16666667 -27.16666667 38.16666667 -24 40 C-20.45638757 40 -18.13408409 39.65850044 -15.0625 37.875 C-13.3287694 34.81547541 -13.57854784 32.43182475 -14 29 C-15.47993156 26.43661311 -15.47993156 26.43661311 -18 25 C-21.14522722 24.68547728 -23.15916359 24.57958179 -26 26 Z M21 44 C22 46 22 46 22 46 Z M-43 49 C-42 51 -42 51 -42 51 Z " fill="#151514" transform="translate(295,215)"/>
<path d="M0 0 C2.35694954 0.09031574 4.71153582 0.24688128 7.0625 0.4375 C8.35285156 0.53933594 9.64320313 0.64117187 10.97265625 0.74609375 C12.47119141 0.87177734 12.47119141 0.87177734 14 1 C15.35605968 4.85462635 16.24143238 7.8956496 16 12 C16.639375 12.12375 17.27875 12.2475 17.9375 12.375 C18.618125 12.58125 19.29875 12.7875 20 13 C21.26237731 15.52475462 21.09856404 17.31200466 21.0625 20.125 C21.05347656 21.03507812 21.04445313 21.94515625 21.03515625 22.8828125 C21.02355469 23.58148438 21.01195312 24.28015625 21 25 C19.35 25.66 17.7 26.32 16 27 C16.07223538 30.07328704 16.26641916 33.00844693 17 36 C19.4390706 38.20142332 19.4390706 38.20142332 22 40 C23.09894561 43.76781351 23.04129335 46.28338375 22 50 C15.89211746 51.99894338 11.07674999 52.45706854 5 50 C2.57923074 47.92665596 1.30140598 45.90313643 0 43 C-3.15539038 43.72391532 -3.15539038 43.72391532 -4.6875 46.375 C-7.74246573 49.84279894 -10.489252 51.12869312 -15 52 C-21.82488302 52.25969875 -24.4687731 51.42498152 -30 47 C-30 53.6 -30 60.2 -30 67 C-33.63 67 -37.26 67 -41 67 C-41 49.84 -41 32.68 -41 15 C-37.37 15 -33.74 15 -30 15 C-30 15.99 -30 16.98 -30 18 C-28.68 17.67 -27.36 17.34 -26 17 C-26 16.34 -26 15.68 -26 15 C-24.9375 13.3125 -24.9375 13.3125 -23 12 C-19.18970765 12.21982456 -15.9041077 13.02876769 -12.25 14.125 C-9.02324413 15.31440749 -9.02324413 15.31440749 -6 14 C-5.34 14.33 -4.68 14.66 -4 15 C-3.67 14.01 -3.34 13.02 -3 12 C-2.01 12 -1.02 12 0 12 C-0.08378906 11.21753906 -0.16757812 10.43507812 -0.25390625 9.62890625 C-0.40666016 8.11103516 -0.40666016 8.11103516 -0.5625 6.5625 C-0.71912109 5.04849609 -0.71912109 5.04849609 -0.87890625 3.50390625 C-0.93884766 2.26447266 -0.93884766 2.26447266 -1 1 C-0.67 0.67 -0.34 0.34 0 0 Z M-26 26 C-26 26.66 -26 27.32 -26 28 C-26.66 28 -27.32 28 -28 28 C-28.94271002 31.25639659 -28.94271002 31.25639659 -29 35 C-27.16666667 38.16666667 -27.16666667 38.16666667 -24 40 C-20.45638757 40 -18.13408409 39.65850044 -15.0625 37.875 C-13.3287694 34.81547541 -13.57854784 32.43182475 -14 29 C-15.47993156 26.43661311 -15.47993156 26.43661311 -18 25 C-21.14522722 24.68547728 -23.15916359 24.57958179 -26 26 Z M21 44 C22 46 22 46 22 46 Z " fill="#0F0F0E" transform="translate(295,215)"/>
<path d="M0 0 C7.52400453 -0.13435722 14.57749266 0.70106122 22 2 C22 2.99 22 3.98 22 5 C20.68 5.33 19.36 5.66 18 6 C18 5.01 18 4.02 18 3 C14.37 3 10.74 3 7 3 C7 20.16 7 37.32 7 55 C10.63 55 14.26 55 18 55 C18 48.4 18 41.8 18 35 C19.32 35.66 20.64 36.32 22 37 C22.33 37.99 22.66 38.98 23 40 C22.01 40.66 21.02 41.32 20 42 C20.495 49.425 20.495 49.425 21 57 C19.68 57 18.36 57 17 57 C16.32839844 57.01160156 15.65679687 57.02320313 14.96484375 57.03515625 C11.70407473 57.07913579 9.11477946 57.03825982 6 56 C5.67 51.05 5.34 46.1 5 41 C1.98509443 39.99503148 -0.04181692 39.89664697 -3.1875 39.9375 C-4.08855469 39.94652344 -4.98960937 39.95554687 -5.91796875 39.96484375 C-6.60503906 39.97644531 -7.29210937 39.98804688 -8 40 C-8.96088383 37.11734851 -9.11670941 35.32337729 -9.09765625 32.33203125 C-9.09443359 31.43935547 -9.09121094 30.54667969 -9.08789062 29.62695312 C-9.07951172 28.69818359 -9.07113281 27.76941406 -9.0625 26.8125 C-9.05798828 25.87212891 -9.05347656 24.93175781 -9.04882812 23.96289062 C-9.03704626 21.64186288 -9.02059558 19.32096356 -9 17 C-9.66 16.67 -10.32 16.34 -11 16 C-11 15.34 -11 14.68 -11 14 C-11.66 13.67 -12.32 13.34 -13 13 C-12.38125 12.87625 -11.7625 12.7525 -11.125 12.625 C-8.80879168 12.12802644 -8.80879168 12.12802644 -7 10 C-7 19.24 -7 28.48 -7 38 C-3.04 38 0.92 38 5 38 C5.33 26.45 5.66 14.9 6 3 C1.38 3 -3.24 3 -8 3 C-8 2.67 -8 2.34 -8 2 C-5.36 2 -2.72 2 0 2 C0 1.34 0 0.68 0 0 Z " fill="#92918E" transform="translate(247,227)"/>
<path d="M0 0 C3.95189363 0.6466735 5.03173045 1.44390985 7.4375 4.5625 C9.4375 7.5625 9.4375 7.5625 9.3125 9.4375 C8.0969664 12.38951017 6.69975106 14.30024894 4.4375 16.5625 C0.80456886 17.79924251 -0.80441953 17.90708203 -4.3125 16.3125 C-7.24181116 14.03414688 -8.43853323 12.37713875 -9 8.6875 C-8.5625 5.5625 -8.5625 5.5625 -6.5 2.6875 C-3.5625 0.5625 -3.5625 0.5625 0 0 Z " fill="#2A2A28" transform="translate(334.5625,249.4375)"/>
<path d="M0 0 C2.95167993 1.61866319 3.03225355 3.10885572 4 6.375 C4 10 4 10 2 12.9375 C-1.72624962 15.49929661 -3.55800413 15.63457084 -8 15 C-10.9375 13.5 -10.9375 13.5 -13 12 C-12.74337755 10.55989519 -12.46909179 9.1229313 -12.1875 7.6875 C-12.03667969 6.88699219 -11.88585937 6.08648437 -11.73046875 5.26171875 C-9.79147414 -0.74190628 -5.5709123 -0.82575109 0 0 Z " fill="#30302E" transform="translate(250,208)"/>
<path d="M0 0 C0.66 0.66 1.32 1.32 2 2 C1.67 2.66 1.34 3.32 1 4 C0.33481029 9.88227138 0.33481029 9.88227138 3.1875 14.8125 C6.32485198 17.25266265 9.45243067 19.22621534 13 21 C13.625 23.0625 13.625 23.0625 14 25 C8.70558305 25.50423019 6.18586481 24.18923033 2 21 C-0.475 25.455 -0.475 25.455 -3 30 C-0.525 30.99 -0.525 30.99 2 32 C2 32.66 2 33.32 2 34 C-3.875 32.125 -3.875 32.125 -5 31 C-4.52334944 24.68438003 -4.52334944 24.68438003 -2.375 21.875 C-0.70336706 20.03137821 -0.70336706 20.03137821 -1.25 17.375 C-1.92658612 15.01589855 -1.92658612 15.01589855 -3 13 C-3.22964422 7.71818305 -2.94030596 4.41045895 0 0 Z " fill="#F0EFEE" transform="translate(158,232)"/>
<path d="M0 0 C0.33 0.66 0.66 1.32 1 2 C1.99 2.33 2.98 2.66 4 3 C3.6390625 3.51949219 3.278125 4.03898438 2.90625 4.57421875 C-0.7050279 9.80268947 -0.7050279 9.80268947 -1 16 C-1.99 15.67 -2.98 15.34 -4 15 C-4.33 14.34 -4.66 13.68 -5 13 C-7.11846285 12.31270746 -7.11846285 12.31270746 -9.5625 11.875 C-10.80193359 11.62363281 -10.80193359 11.62363281 -12.06640625 11.3671875 C-12.70449219 11.24601563 -13.34257812 11.12484375 -14 11 C-14.33 9.68 -14.66 8.36 -15 7 C-11.04 7 -7.08 7 -3 7 C-2.01 4.69 -1.02 2.38 0 0 Z " fill="#E6E5E4" transform="translate(184,231)"/>
<path d="M0 0 C0.33 0.66 0.66 1.32 1 2 C1.99 2.33 2.98 2.66 4 3 C3.57343918 6.09415757 3.07001562 9.05880129 2 12 C-0.625 13.5625 -0.625 13.5625 -3 14 C-6.96099025 8.83870968 -6.96099025 8.83870968 -7.125 5.3125 C-5.52083901 2.01505796 -3.31251062 1.33910004 0 0 Z " fill="#777371" transform="translate(217,273)"/>
<path d="M0 0 C2.35694954 0.09031574 4.71153582 0.24688128 7.0625 0.4375 C8.35285156 0.53933594 9.64320313 0.64117187 10.97265625 0.74609375 C12.47119141 0.87177734 12.47119141 0.87177734 14 1 C15.35605968 4.85462635 16.24143238 7.8956496 16 12 C17.32 12.33 18.64 12.66 20 13 C20 13.66 20 14.32 20 15 C17.69 15 15.38 15 13 15 C13 10.71 13 6.42 13 2 C9.04 2 5.08 2 1 2 C1 6.29 1 10.58 1 15 C-0.65 15 -2.3 15 -4 15 C-3.67 14.01 -3.34 13.02 -3 12 C-2.01 12 -1.02 12 0 12 C-0.08378906 11.21753906 -0.16757812 10.43507812 -0.25390625 9.62890625 C-0.35574219 8.61699219 -0.45757812 7.60507813 -0.5625 6.5625 C-0.66691406 5.55316406 -0.77132813 4.54382813 -0.87890625 3.50390625 C-0.91886719 2.67761719 -0.95882813 1.85132813 -1 1 C-0.67 0.67 -0.34 0.34 0 0 Z " fill="#FEFDFB" transform="translate(295,215)"/>
<path d="M0 0 C0.66 0 1.32 0 2 0 C2.22162329 1.62324086 2.42689803 3.248721 2.625 4.875 C2.74101562 5.77992188 2.85703125 6.68484375 2.9765625 7.6171875 C2.98429688 8.40351563 2.99203125 9.18984375 3 10 C2.34 10.66 1.68 11.32 1 12 C-2.125 11.625 -2.125 11.625 -5 11 C-5.66 8.69 -6.32 6.38 -7 4 C-4 3 -4 3 0 3 C0 2.01 0 1.02 0 0 Z " fill="#A3A09A" transform="translate(199,273)"/>
<path d="M0 0 C0.33 0 0.66 0 1 0 C1 9.24 1 18.48 1 28 C4.96 28 8.92 28 13 28 C13 28.99 13 29.98 13 31 C12.01 30.67 11.02 30.34 10 30 C8.27204648 29.93197033 6.54164635 29.91504355 4.8125 29.9375 C3.91144531 29.94652344 3.01039063 29.95554687 2.08203125 29.96484375 C1.05142578 29.98224609 1.05142578 29.98224609 0 30 C-0.96088383 27.11734851 -1.11670941 25.32337729 -1.09765625 22.33203125 C-1.09443359 21.43935547 -1.09121094 20.54667969 -1.08789062 19.62695312 C-1.07951172 18.69818359 -1.07113281 17.76941406 -1.0625 16.8125 C-1.05798828 15.87212891 -1.05347656 14.93175781 -1.04882812 13.96289062 C-1.03704626 11.64186288 -1.02059558 9.32096356 -1 7 C-1.66 6.67 -2.32 6.34 -3 6 C-3 5.34 -3 4.68 -3 4 C-3.66 3.67 -4.32 3.34 -5 3 C-4.360625 2.87625 -3.72125 2.7525 -3.0625 2.625 C-2.0415625 2.315625 -2.0415625 2.315625 -1 2 C-0.67 1.34 -0.34 0.68 0 0 Z " fill="#A1A09C" transform="translate(239,237)"/>
<path d="M0 0 C0.33 0 0.66 0 1 0 C1 3.3 1 6.6 1 10 C-0.65 10.66 -2.3 11.32 -4 12 C-3.88541307 13.43836751 -3.75790884 14.87570966 -3.625 16.3125 C-3.55539062 17.11300781 -3.48578125 17.91351563 -3.4140625 18.73828125 C-3.10435574 21.27224441 -3.10435574 21.27224441 -1 24 C-2.65 24.33 -4.3 24.66 -6 25 C-7.50156874 21.99686252 -7.09281204 19.20932478 -7.0625 15.875 C-7.05347656 14.59367188 -7.04445313 13.31234375 -7.03515625 11.9921875 C-7.02355469 11.00476563 -7.01195312 10.01734375 -7 9 C-4.69 9 -2.38 9 0 9 C0 6.03 0 3.06 0 0 Z " fill="#E7E7E6" transform="translate(315,230)"/>
<path d="M0 0 C1.32 0.66 2.64 1.32 4 2 C4.33 2.99 4.66 3.98 5 5 C4.01 5.66 3.02 6.32 2 7 C2.33 11.95 2.66 16.9 3 22 C-0.50935186 22 -3.56484998 21.62457273 -7 21 C-7 20.67 -7 20.34 -7 20 C-4.69 20 -2.38 20 0 20 C0 13.4 0 6.8 0 0 Z " fill="#8C8C8A" transform="translate(265,262)"/>
<path d="M0 0 C0.66 0 1.32 0 2 0 C2.66 0.66 3.32 1.32 4 2 C4.99 2.33 5.98 2.66 7 3 C6.835 3.7425 6.67 4.485 6.5 5.25 C5.88074304 8.19006578 5.88074304 8.19006578 6 12 C4.34385343 12.38218767 2.67542976 12.71395102 1 13 C0 12 0 12 -0.09765625 9.27734375 C-0.08605469 8.17519531 -0.07445312 7.07304687 -0.0625 5.9375 C-0.05347656 4.83277344 -0.04445312 3.72804688 -0.03515625 2.58984375 C-0.02355469 1.73519531 -0.01195312 0.88054687 0 0 Z " fill="#979591" transform="translate(165,273)"/>
<path d="M0 0 C7.52400453 -0.13435722 14.57749266 0.70106122 22 2 C22 2.99 22 3.98 22 5 C20.68 5.33 19.36 5.66 18 6 C18 5.01 18 4.02 18 3 C9.42 3 0.84 3 -8 3 C-8 2.67 -8 2.34 -8 2 C-5.36 2 -2.72 2 0 2 C0 1.34 0 0.68 0 0 Z " fill="#FCFCF7" transform="translate(247,227)"/>
<path d="M0 0 C2.5 0.1875 2.5 0.1875 5 1 C7 4 7 4 7 7 C4 9 4 9 1.375 8.6875 C-1 8 -1 8 -2 7 C-2.1875 4.5625 -2.1875 4.5625 -2 2 C-1.34 1.34 -0.68 0.68 0 0 Z " fill="#8D8B86" transform="translate(242,276)"/>
<path d="M0 0 C0.33 0 0.66 0 1 0 C1 7.59 1 15.18 1 23 C0.34 22.34 -0.32 21.68 -1 21 C-3.57061311 20.35232207 -3.57061311 20.35232207 -6 20 C-2.25 17 -2.25 17 0 17 C0 13.7 0 10.4 0 7 C-0.66 7 -1.32 7 -2 7 C-2.33 6.01 -2.66 5.02 -3 4 C-2.34 4 -1.68 4 -1 4 C-0.67 2.68 -0.34 1.36 0 0 Z " fill="#C7C6C1" transform="translate(211,236)"/>
<path d="M0 0 C1 3 1 3 0.22265625 4.82421875 C-0.8515625 6.54947917 -1.92578125 8.27473958 -3 10 C-0.525 10.99 -0.525 10.99 2 12 C2 12.66 2 13.32 2 14 C-3.875 12.125 -3.875 12.125 -5 11 C-4.77265843 6.98363218 -4.57290919 4.67707449 -1.9375 1.5625 C-0.9784375 0.7890625 -0.9784375 0.7890625 0 0 Z " fill="#F7F4F4" transform="translate(158,252)"/>
<path d="M0 0 C0.99 0 1.98 0 3 0 C3.02697137 2.60423592 3.04682489 5.20819244 3.0625 7.8125 C3.07087891 8.55048828 3.07925781 9.28847656 3.08789062 10.04882812 C3.10259828 13.29922068 3.03531702 15.89404895 2 19 C1.01 18.67 0.02 18.34 -1 18 C-0.505 16.515 -0.505 16.515 0 15 C0.07029121 12.42734182 0.09370832 9.88358569 0.0625 7.3125 C0.05573242 6.2596582 0.05573242 6.2596582 0.04882812 5.18554688 C0.03706927 3.45699462 0.01913454 1.72848635 0 0 Z " fill="#CBCAC9" transform="translate(293,239)"/>
<path d="M0 0 C2.19050021 0.09017996 4.378466 0.24666208 6.5625 0.4375 C7.76003906 0.53933594 8.95757812 0.64117187 10.19140625 0.74609375 C11.11824219 0.82988281 12.04507812 0.91367188 13 1 C13 1.33 13 1.66 13 2 C9.04 2 5.08 2 1 2 C1 6.29 1 10.58 1 15 C-0.65 15 -2.3 15 -4 15 C-3.67 14.01 -3.34 13.02 -3 12 C-2.01 12 -1.02 12 0 12 C-0.08378906 11.21753906 -0.16757812 10.43507812 -0.25390625 9.62890625 C-0.35574219 8.61699219 -0.45757812 7.60507813 -0.5625 6.5625 C-0.66691406 5.55316406 -0.77132813 4.54382813 -0.87890625 3.50390625 C-0.91886719 2.67761719 -0.95882813 1.85132813 -1 1 C-0.67 0.67 -0.34 0.34 0 0 Z " fill="#E6E4E2" transform="translate(295,215)"/>
<path d="M0 0 C0.99 0 1.98 0 3 0 C3 3.63 3 7.26 3 11 C2.01 11 1.02 11 0 11 C-1.125 3.375 -1.125 3.375 0 0 Z " fill="#AAA7A0" transform="translate(181,274)"/>
<path d="M0 0 C0.99 0.33 1.98 0.66 3 1 C4.72795352 1.06802967 6.45835365 1.08495645 8.1875 1.0625 C9.08855469 1.05347656 9.98960937 1.04445313 10.91796875 1.03515625 C11.94857422 1.01775391 11.94857422 1.01775391 13 1 C13 1.66 13 2.32 13 3 C9.43528609 4.18823797 6.7441664 4.26274852 3 4 C0.5625 2.5 0.5625 2.5 -1 1 C-0.67 0.67 -0.34 0.34 0 0 Z " fill="#FBFBFB" transform="translate(161,265)"/>
<path d="M0 0 C0.99 0 1.98 0 3 0 C3.33 3.63 3.66 7.26 4 11 C2.68 11 1.36 11 0 11 C0 7.37 0 3.74 0 0 Z " fill="#A3A19D" transform="translate(228,274)"/>
<path d="M0 0 C6.93 0.495 6.93 0.495 14 1 C14 1.99 14 2.98 14 4 C13.01 3.67 12.02 3.34 11 3 C9.27204648 2.93197033 7.54164635 2.91504355 5.8125 2.9375 C4.91144531 2.94652344 4.01039063 2.95554687 3.08203125 2.96484375 C2.05142578 2.98224609 2.05142578 2.98224609 1 3 C0.67 2.01 0.34 1.02 0 0 Z " fill="#FFFFF9" transform="translate(238,264)"/>
<path d="M0 0 C2.4377963 -0.05397335 4.87439685 -0.09365616 7.3125 -0.125 C8.00279297 -0.14175781 8.69308594 -0.15851563 9.40429688 -0.17578125 C13.17135396 -0.21217794 14.78431704 -0.14378864 18 2 C17.01 2.99 16.02 3.98 15 5 C14.67 4.01 14.34 3.02 14 2 C13.15695313 2.02320313 12.31390625 2.04640625 11.4453125 2.0703125 C9.80175781 2.09738281 9.80175781 2.09738281 8.125 2.125 C7.03445312 2.14820313 5.94390625 2.17140625 4.8203125 2.1953125 C2 2 2 2 0 0 Z " fill="#FAFAF6" transform="translate(210,228)"/>
<path d="M0 0 C0 0.99 0 1.98 0 3 C-1.32 3.33 -2.64 3.66 -4 4 C-4 3.01 -4 2.02 -4 1 C-7.63 1 -11.26 1 -15 1 C-15 0.67 -15 0.34 -15 0 C-9.76528314 -0.75612577 -5.22745859 -1.2063366 0 0 Z " fill="#E3E2DB" transform="translate(269,229)"/>
<path d="M0 0 C0 1.65 0 3.3 0 5 C-1.32 5.33 -2.64 5.66 -4 6 C-4.66 4.35 -5.32 2.7 -6 1 C-3 0 -3 0 0 0 Z " fill="#B3B0AD" transform="translate(216,278)"/>
<path d="M0 0 C2.00720923 0.28674418 4.0085944 0.61866701 6 1 C5.01 1.66 4.02 2.32 3 3 C3 3.99 3 4.98 3 6 C3.66 6.66 4.32 7.32 5 8 C3.35 7.67 1.7 7.34 0 7 C-0.38133299 5.0085944 -0.71325582 3.00720923 -1 1 C-0.67 0.67 -0.34 0.34 0 0 Z " fill="#757370" transform="translate(193,276)"/>
<path d="M0 0 C2.64 0 5.28 0 8 0 C6.875 1.5625 6.875 1.5625 5 3 C1.8125 2.6875 1.8125 2.6875 -1 2 C-0.67 1.34 -0.34 0.68 0 0 Z " fill="#FDFDFD" transform="translate(198,266)"/>
<path d="M0 0 C2.29013653 3.4352048 2.17842973 4.985331 2 9 C0.68 9 -0.64 9 -2 9 C-1.34 8.67 -0.68 8.34 0 8 C0 5.36 0 2.72 0 0 Z " fill="#FFFFFF" transform="translate(266,275)"/>
<path d="M0 0 C0.99 0.33 1.98 0.66 3 1 C2.34 3.97 1.68 6.94 1 10 C0.34 9.67 -0.32 9.34 -1 9 C-0.67 6.03 -0.34 3.06 0 0 Z " fill="#FFFFFF" transform="translate(218,275)"/>
<path d="M0 0 C0.66 0.33 1.32 0.66 2 1 C1.34 2.32 0.68 3.64 0 5 C-1.32 4.67 -2.64 4.34 -4 4 C-4 3.34 -4 2.68 -4 2 C-2.125 0.9375 -2.125 0.9375 0 0 Z " fill="#979490" transform="translate(200,280)"/>
<path d="M0 0 C0.33 0 0.66 0 1 0 C1 2.31 1 4.62 1 7 C0.34 6.34 -0.32 5.68 -1 5 C-0.625 2.375 -0.625 2.375 0 0 Z " fill="#FFFFFF" transform="translate(163,277)"/>
<path d="M0 0 C1 4 1 4 1 4 Z " fill="#FFFFFF" transform="translate(179,279)"/>
<path d="" fill="#FFFFFF" transform="translate(0,0)"/>
<path d="" fill="#FFFFFF" transform="translate(0,0)"/>
<path d="M0 0 C3 1 3 1 3 1 Z " fill="#FFFFFF" transform="translate(237,227)"/>
<path d="" fill="#FFFFFF" transform="translate(0,0)"/>
<path d="" fill="#FFFFFF" transform="translate(0,0)"/>
<path d="" fill="#FFFFFF" transform="translate(0,0)"/>
<path d="" fill="#FFFFFF" transform="translate(0,0)"/>
<path d="" fill="#FFFFFF" transform="translate(0,0)"/>
<path d="" fill="#FFFFFF" transform="translate(0,0)"/>
<path d="" fill="#FFFFFF" transform="translate(0,0)"/>
<path d="" fill="#FFFFFF" transform="translate(0,0)"/>
</svg>
